<svg width="673" height="135" viewBox="0 0 673 135" fill="none" xmlns="http://www.w3.org/2000/svg">
<path d="M66.4501 5.64014C54.1065 5.64014 42.0402 9.30042 31.7769 16.1581C21.5137 23.0158 13.5144 32.7629 8.79075 44.1669C4.06708 55.5708 2.83115 68.1194 5.23926 80.2257C7.64736 92.3321 13.5913 103.452 22.3195 112.181C31.0477 120.909 42.1681 126.853 54.2745 129.261C66.3808 131.669 78.9294 130.433 90.3333 125.709C101.737 120.986 111.484 112.987 118.342 102.723C125.2 92.46 128.86 80.3937 128.86 68.0501C128.86 59.8543 127.246 51.7388 124.109 44.1669C120.973 36.5949 116.376 29.7149 110.581 23.9196C104.785 18.1243 97.9053 13.5272 90.3333 10.3908C82.7614 7.25442 74.6459 5.64014 66.4501 5.64014V5.64014ZM66.4501 97.4901C60.6274 97.4901 54.9355 95.7635 50.0941 92.5286C45.2527 89.2937 41.4793 84.6958 39.2511 79.3163C37.0228 73.9369 36.4398 68.0175 37.5757 62.3067C38.7117 56.5959 41.5156 51.3502 45.6328 47.2329C49.7501 43.1157 54.9958 40.3118 60.7066 39.1758C66.4174 38.0399 72.3368 38.6229 77.7163 40.8511C83.0957 43.0794 87.6936 46.8528 90.9285 51.6941C94.1634 56.5355 95.8901 62.2275 95.8901 68.0501C95.8901 75.8581 92.7884 83.3463 87.2673 88.8674C81.7462 94.3884 74.258 97.4901 66.4501 97.4901Z" fill="#F6F6FD"/>
<path d="M165.491 43.3666H182.827V91.1802H194.518V43.3666H211.854V33.5297H165.491V43.3666ZM221.772 49.817H211.21V91.1802H222.176V71.0227C222.176 62.3146 227.336 58.525 234.512 59.2507H234.754V49.6557C234.109 49.4138 233.383 49.3332 232.174 49.3332C227.336 49.3332 224.514 51.7521 222.014 56.4286H221.772V49.817ZM276.164 91.1802V49.817H265.199V73.6835C265.199 79.1663 262.054 83.0365 256.894 83.0365C252.217 83.0365 250.04 80.3758 250.04 75.538V49.817H239.155V77.3924C239.155 86.423 244.315 92.309 253.507 92.309C259.313 92.309 262.538 90.132 265.36 86.3424H265.602V91.1802H276.164ZM300.028 92.3896C310.349 92.3896 317.444 87.3906 317.444 79.0857C317.444 69.4101 309.784 67.475 302.85 66.0236C296.964 64.8142 291.481 64.4916 291.481 60.9439C291.481 57.9606 294.303 56.348 298.577 56.348C303.253 56.348 306.075 57.9606 306.559 62.3953H316.477C315.67 54.0904 309.623 48.6882 298.738 48.6882C289.304 48.6882 281.886 52.9616 281.886 61.9115C281.886 70.942 289.143 72.9578 296.561 74.4091C302.205 75.538 307.446 75.9411 307.446 79.892C307.446 82.7947 304.705 84.6491 299.867 84.6491C294.949 84.6491 291.562 82.5528 290.836 77.7956H280.677C281.322 86.5843 288.014 92.3896 300.028 92.3896ZM319.185 57.0737H324.909V81.3433C324.909 89.1644 330.795 91.2608 336.117 91.2608C340.471 91.2608 342.971 91.0995 342.971 91.0995V83.0365C342.971 83.0365 341.116 83.1172 339.745 83.1172C337.327 83.1172 335.633 82.069 335.633 79.005V57.0737H342.729V49.817H335.633V36.9162H324.909V49.817H319.185V57.0737ZM348.537 91.1802H359.502V33.5297H348.537V91.1802ZM386.154 92.3896C396.797 92.3896 403.328 86.1811 404.86 78.8438H394.055C392.846 81.9884 390.346 83.9235 386.073 83.9235C379.864 83.9235 376.317 79.9726 375.51 73.6028H405.505C405.505 58.8475 398.409 48.6882 385.105 48.6882C373.011 48.6882 364.706 58.2025 364.706 70.4583C364.706 82.7947 372.447 92.3896 386.154 92.3896ZM385.267 57.1543C390.266 57.1543 393.733 60.7827 394.055 66.0236H375.672C376.639 60.6214 379.461 57.1543 385.267 57.1543ZM427.351 92.3896C437.672 92.3896 444.767 87.3906 444.767 79.0857C444.767 69.4101 437.107 67.475 430.173 66.0236C424.287 64.8142 418.804 64.4916 418.804 60.9439C418.804 57.9606 421.626 56.348 425.9 56.348C430.576 56.348 433.398 57.9606 433.882 62.3953H443.8C442.993 54.0904 436.946 48.6882 426.061 48.6882C416.627 48.6882 409.209 52.9616 409.209 61.9115C409.209 70.942 416.466 72.9578 423.884 74.4091C429.528 75.538 434.769 75.9411 434.769 79.892C434.769 82.7947 432.028 84.6491 427.19 84.6491C422.271 84.6491 418.885 82.5528 418.159 77.7956H408C408.645 86.5843 415.337 92.3896 427.351 92.3896ZM466.485 92.3896C476.806 92.3896 483.901 87.3906 483.901 79.0857C483.901 69.4101 476.241 67.475 469.307 66.0236C463.421 64.8142 457.938 64.4916 457.938 60.9439C457.938 57.9606 460.76 56.348 465.034 56.348C469.71 56.348 472.532 57.9606 473.016 62.3953H482.934C482.127 54.0904 476.08 48.6882 465.195 48.6882C455.761 48.6882 448.343 52.9616 448.343 61.9115C448.343 70.942 455.6 72.9578 463.018 74.4091C468.662 75.538 473.903 75.9411 473.903 79.892C473.903 82.7947 471.162 84.6491 466.324 84.6491C461.405 84.6491 458.019 82.5528 457.293 77.7956H447.134C447.779 86.5843 454.471 92.3896 466.485 92.3896ZM503.278 91.1802H524.806C532.063 91.1802 537.627 89.1644 541.9 85.6167C547.947 80.537 551.092 72.3128 551.092 62.9597C551.092 45.9467 541.174 33.5297 525.774 33.5297H503.278V91.1802ZM514.97 81.1014V43.5278H524.323C534.24 43.5278 539.239 51.5102 539.239 62.9597C539.239 74.4091 534.966 81.1014 524 81.1014H514.97ZM550.03 91.1802H561.883L565.673 78.9244H586.475L590.345 91.1802H602.52L582.202 33.5297H570.107L550.03 91.1802ZM573.574 53.3647C574.542 50.3008 575.993 44.4954 575.993 44.4954H576.154C576.154 44.4954 577.525 50.3008 578.493 53.3647L583.653 69.9745H568.414L573.574 53.3647ZM629.462 92.4703C646.475 92.4703 657.199 79.7307 657.199 62.4759C657.199 45.2211 646.475 32.4009 629.462 32.4009C612.449 32.4009 601.645 45.2211 601.645 62.4759C601.645 79.7307 612.449 92.4703 629.462 92.4703ZM629.543 82.8753C618.98 82.8753 613.578 73.9254 613.578 62.4759C613.578 50.9458 618.98 41.9959 629.543 41.9959C640.105 41.9959 645.266 50.9458 645.266 62.4759C645.266 73.9254 640.105 82.8753 629.543 82.8753Z" fill="#F6F6FD"/>
</svg>
