<svg width="135" height="135" viewBox="0 0 135 135" fill="none" xmlns="http://www.w3.org/2000/svg">
<path d="M66.4501 5.64014C54.1065 5.64014 42.0402 9.30042 31.7769 16.1581C21.5137 23.0158 13.5144 32.7629 8.79075 44.1669C4.06708 55.5708 2.83115 68.1194 5.23926 80.2257C7.64736 92.3321 13.5913 103.452 22.3195 112.181C31.0477 120.909 42.1681 126.853 54.2745 129.261C66.3808 131.669 78.9294 130.433 90.3333 125.709C101.737 120.986 111.484 112.987 118.342 102.723C125.2 92.46 128.86 80.3937 128.86 68.0501C128.86 59.8543 127.246 51.7388 124.109 44.1669C120.973 36.5949 116.376 29.7149 110.581 23.9196C104.785 18.1243 97.9053 13.5272 90.3333 10.3908C82.7614 7.25442 74.6459 5.64014 66.4501 5.64014V5.64014ZM66.4501 97.4901C60.6274 97.4901 54.9355 95.7635 50.0941 92.5286C45.2527 89.2937 41.4793 84.6958 39.2511 79.3163C37.0228 73.9369 36.4398 68.0175 37.5757 62.3067C38.7117 56.5959 41.5156 51.3502 45.6328 47.2329C49.7501 43.1157 54.9958 40.3118 60.7066 39.1758C66.4174 38.0399 72.3368 38.6229 77.7163 40.8511C83.0957 43.0794 87.6936 46.8528 90.9285 51.6941C94.1634 56.5355 95.8901 62.2275 95.8901 68.0501C95.8901 75.8581 92.7884 83.3463 87.2673 88.8674C81.7462 94.3884 74.258 97.4901 66.4501 97.4901Z" fill="#F6F6FD"/>
</svg>
